<svg xmlns="http://www.w3.org/2000/svg" width="184" height="36" viewBox="0 0 184 36">
    <g fill="none" fill-rule="evenodd">
        <path fill="#272727" d="M71.343 21.566c-.936.192-1.88.283-2.38.305-1.69.077-2.008-.625-2.008-3.093 0-2.467.322-3.184 2.008-3.108.501.023 1.583.249 2.38.33l.235-1.442c-.787-.14-1.824-.327-2.532-.355-3.754-.167-4.664 1.412-4.664 4.575 0 3.165.914 4.716 4.666 4.576.765-.03 1.79-.17 2.588-.325l-.293-1.463zM37.428 17.745v3.701h2.834c1.336 0 1.985-.363 1.985-1.986 0-1.705-1.225-1.715-2.12-1.715h-2.699zm0-5.174v3.463h2.698c1.238 0 1.664-.506 1.664-1.89 0-1.25-.415-1.573-1.85-1.573h-2.512zm2.511-1.731c2.737 0 4.369 1.132 4.369 3.304 0 1.312-.458 2.13-1.174 2.615.867.434 1.63 1.211 1.63 2.701 0 2.824-1.99 3.716-4.502 3.716h-5.335V10.84h5.012zM50.968 18.865s-.812-.012-1.633.09c-.847.106-1.322.534-1.322 1.4 0 .65.212 1.217 1.12 1.394.57.111 1.146.079 1.835.002v-2.886zm-4.69-4.161c1.47-.291 2.493-.503 3.568-.503 2.477 0 3.609 1.16 3.609 2.948v5.937c-1.508.174-3.051.352-4.71.181-2.05-.211-3.305-1.258-3.305-2.907 0-1.499.9-2.566 3.254-2.84a24.33 24.33 0 0 1 2.274-.126v-.34c0-.914-.323-1.331-1.122-1.331-.856 0-1.9.202-3.302.478l-.267-1.497zM78.27 18.63c0-2.253-.754-2.939-1.942-2.939-1.5 0-2.017.506-2.017 2.907 0 2.565.343 3.254 2.017 3.254 1.648 0 1.943-.814 1.943-3.223zm-1.942-4.43c2.818 0 4.489 1.357 4.489 4.43 0 3.057-.92 4.704-4.49 4.704-3.526 0-4.561-1.44-4.561-4.736 0-3.11 1.483-4.397 4.562-4.397zM90.927 15.8c-.43-.11-1.074-.216-1.714-.128-1.24.17-1.54.863-1.54 2.94 0 2.175.255 3.108 2.102 3.218.742.044 1.152-.03 1.152-.03v-6zm0-4.95h2.48v12.278c-1.37.154-2.28.217-3.27.217-4.189 0-5.042-1.72-5.042-4.765 0-2.714.943-4.398 4.117-4.398.647 0 1.236.044 1.715.11v-3.443zM100.507 17.995c-.066-1.767-.555-2.304-1.764-2.304-1.14 0-1.639.55-1.706 2.304h3.47zm2.177 4.92c-1.357.283-2.595.437-3.809.437-3.7 0-4.443-1.926-4.443-4.58 0-3.358 1.557-4.57 4.222-4.57 2.87 0 4.37 1.35 4.37 4.27v1.013h-5.987c.068 1.638.417 2.366 1.862 2.366.836 0 2.619-.228 3.514-.422l.27 1.486zM54.78 15.078c1.436-.567 2.755-.893 4.26-.893 3.207 0 4.298 1.552 4.298 4.396v4.586h-2.492v-4.585c0-2.183-.487-2.908-1.806-2.908-.654 0-1.36.142-1.805.264v7.229H54.78v-8.089z"/>
        <path fill="#008ACC" d="M0 21.446l13.958 13.935 13.96-13.935-3.247-3.24L13.958 28.9l-7.465-7.453 7.465-7.452 3.183 3.176 3.246-3.24-6.429-6.417z"/>
        <path fill="#008ACC" d="M27.917 13.934L13.959 0-.001 13.934l3.247 3.24L13.959 6.482l7.465 7.452-7.465 7.452-3.183-3.176-3.247 3.24 6.43 6.418zM134.545 21.566c-.937.192-1.879.283-2.38.305-1.69.077-2.008-.625-2.008-3.093 0-2.467.323-3.184 2.008-3.108.501.023 1.583.249 2.38.33l.235-1.442c-.787-.14-1.824-.327-2.532-.355-3.754-.167-4.664 1.412-4.664 4.575 0 3.165.914 4.716 4.666 4.576.764-.03 1.789-.17 2.588-.325l-.293-1.463zM126.888 21.566c-.936.192-1.878.283-2.38.305-1.69.077-2.008-.625-2.008-3.093 0-2.467.323-3.184 2.008-3.108.502.023 1.583.249 2.38.33l.235-1.442c-.786-.14-1.824-.327-2.532-.355-3.754-.167-4.664 1.412-4.664 4.575 0 3.165.914 4.716 4.666 4.576.765-.03 1.79-.17 2.588-.325l-.293-1.463zM113.164 21.59c2.747 0 3.224-1.372 3.224-4.772 0-3.272-1.236-4.39-3.224-4.39-2.409 0-3.327.89-3.327 4.346 0 3.657.549 4.816 3.327 4.816m5.782-4.772c0 4.28-1.134 6.498-5.782 6.498-4.614 0-5.885-1.928-5.885-6.542 0-4.343 1.851-6.062 5.885-6.062 3.679 0 5.782 1.818 5.782 6.106M135.994 23.176h2.455v-8.81h-2.455v8.81zm0-10.15h2.455v-1.852h-2.455v1.852zM145.51 15.8c-.43-.11-1.075-.216-1.716-.128-1.24.17-1.54.863-1.54 2.94 0 2.175.254 3.128 2.103 3.218.123.01.276.013.44.013.216 0 .5-.034.712-.043v-6zm0-4.95h2.479v12.278c-1.403.118-2.281.217-3.27.217-4.189 0-5.041-1.72-5.041-4.765 0-2.714.941-4.398 4.115-4.398.648 0 1.236.044 1.716.11v-3.443zM158.965 15.078c1.435-.567 2.755-.893 4.26-.893 3.207 0 4.298 1.552 4.298 4.396v4.586h-2.492v-4.585c0-2.183-.487-2.908-1.806-2.908-.654 0-1.36.142-1.806.264v7.229h-2.454v-8.089zM172.106 12.322v2.085h1.96v1.49h-1.96v4.374c0 1.015.078 1.392.511 1.454.385.054.768-.008 1.442-.068l.293 1.466c-1.079.21-1.854.22-2.226.22-2.18 0-2.558-1.007-2.558-3.072v-4.374h-1.512v-1.49h1.512v-2.085h2.538zM155.283 17.986c-.066-1.767-.556-2.303-1.764-2.303-1.14 0-1.639.549-1.706 2.304l3.47-.001zm2.176 4.92c-1.356.284-2.594.437-3.808.437-3.7 0-4.444-1.925-4.444-4.58 0-3.357 1.558-4.57 4.222-4.57 2.87 0 4.37 1.35 4.37 4.27v1.013h-5.986c.068 1.638.417 2.366 1.862 2.366.836 0 2.618-.228 3.513-.422l.271 1.486zM180.78 17.995c-.066-1.767-.555-2.304-1.763-2.304-1.14 0-1.64.55-1.707 2.304h3.47zm2.177 4.92c-1.357.283-2.594.437-3.81.437-3.697 0-4.442-1.926-4.442-4.58 0-3.358 1.557-4.57 4.222-4.57 2.87 0 4.37 1.35 4.37 4.27v1.013h-5.987c.069 1.638.417 2.366 1.862 2.366.836 0 2.618-.228 3.514-.422l.27 1.486z"/>
    </g>
</svg>
